<?xml version="1.0" standalone="no"?>
<!DOCTYPE svg PUBLIC "-//W3C//DTD SVG 20010904//EN"
 "http://www.w3.org/TR/2001/REC-SVG-20010904/DTD/svg10.dtd">
<svg version="1.0" xmlns="http://www.w3.org/2000/svg"
 width="1160.000000pt" height="1160.000000pt" viewBox="0 0 1160.000000 1160.000000"
 preserveAspectRatio="xMidYMid meet">
<metadata>
Created by potrace 1.14, written by Peter Selinger 2001-2017
</metadata>
<g transform="translate(0.000000,1160.000000) scale(0.100000,-0.100000)"
fill="#000000" stroke="none">
<path d="M1207 9098 c-4 -166 -8 -797 -9 -1402 -2 -606 -4 -1012 -5 -903 l-3
197 -195 0 -195 0 -2 403 -3 402 -197 3 -198 2 0 -1005 0 -1005 -200 0 -200 0
0 -190 0 -190 395 0 395 0 0 196 c0 127 3 193 10 189 6 -4 10 -80 10 -196 l0
-189 190 0 190 0 3 398 c1 218 3 -234 5 -1005 l2 -1403 200 0 200 0 0 1405 0
1405 200 0 200 0 0 -1210 0 -1210 -195 0 -195 0 0 -190 0 -190 193 -2 192 -2
-195 -6 -195 -5 -3 -198 -2 -197 1997 2 1998 3 0 195 0 195 -595 5 c-327 3
-504 6 -392 8 l202 2 0 190 0 190 -205 0 c-130 0 -205 4 -205 10 0 6 72 10
195 10 l195 0 0 190 0 190 -195 0 -195 0 0 1010 0 1010 203 -2 202 -3 3 -1207
2 -1208 190 0 190 0 0 2605 0 2605 -190 0 -190 0 -2 -1202 -3 -1203 -1800 0
c-990 0 -1711 1 -1602 2 l197 3 -2 1205 -3 1205 205 0 205 0 -3 -1205 -2
-1205 200 0 200 0 -2 1205 -3 1205 805 0 805 0 -3 -1010 -2 -1010 -795 0 -795
0 0 -189 0 -188 958 -5 c526 -2 1062 -2 1190 0 l232 4 0 189 0 189 -195 0
-195 0 -2 1010 -3 1010 398 0 397 0 0 195 0 195 -1988 0 -1989 0 -6 -302z
m2793 -3898 l0 -1010 -795 0 -795 0 0 -190 0 -190 795 0 c523 0 795 -3 795
-10 0 -7 -273 -10 -800 -10 l-800 0 0 1210 0 1210 800 0 800 0 0 -1010z m-403
-1797 c-218 -2 -576 -2 -795 0 -218 1 -39 2 398 2 437 0 616 -1 397 -2z"/>
<path d="M6410 9205 l0 -195 198 0 197 0 -3 -1205 -2 -1205 200 0 200 0 -2
1205 -3 1205 205 0 205 0 -3 -1010 -2 -1010 -195 0 -195 0 0 -189 0 -189 233
-4 c127 -2 663 -2 1190 0 l957 5 0 188 0 189 -795 0 -795 0 -2 1010 -3 1010
805 0 805 0 -2 -1205 -2 -1205 199 0 199 0 -2 1205 -2 1205 198 0 197 0 0 195
0 195 -1990 0 -1990 0 0 -195z"/>
<path d="M810 8600 l0 -390 190 0 190 0 0 390 0 390 -190 0 -190 0 0 -390z"/>
<path d="M5610 8800 l0 -190 190 0 190 0 0 190 0 190 -190 0 -190 0 0 -190z"/>
<path d="M10410 8600 l0 -390 190 0 190 0 0 390 0 390 -190 0 -190 0 0 -390z"/>
<path d="M5210 8400 l0 -190 190 0 190 0 0 190 0 190 -190 0 -190 0 0 -190z"/>
<path d="M6010 8400 l0 -190 190 0 190 0 0 190 0 190 -190 0 -190 0 0 -190z"/>
<path d="M10613 7793 l-203 -3 0 -593 0 -592 195 3 c130 2 195 -1 195 -8 0 -6
-67 -10 -195 -10 l-195 0 0 -195 0 -196 195 3 c107 2 195 0 195 -4 0 -5 -88
-8 -195 -8 l-195 0 0 -390 0 -390 190 0 190 0 0 189 c0 116 4 192 10 196 7 4
10 -62 10 -189 l0 -196 195 0 195 0 -2 1193 -3 1192 -190 0 c-104 0 -281 -1
-392 -2z"/>
<path d="M5208 6833 c-2 -527 -2 -1063 0 -1190 l4 -233 188 0 188 0 4 233 c2
127 2 663 0 1190 l-5 957 -187 0 -187 0 -5 -957z"/>
<path d="M6008 6833 c-2 -527 -2 -1063 0 -1190 l4 -233 188 0 188 0 4 233 c2
127 2 663 0 1190 l-5 957 -187 0 -187 0 -5 -957z"/>
<path d="M1610 6800 l0 -190 190 0 190 0 0 190 0 190 -190 0 -190 0 0 -190z"/>
<path d="M6410 6800 l0 -190 190 0 190 0 0 190 0 190 -190 0 -190 0 0 -190z"/>
<path d="M10010 6800 l0 -190 190 0 190 0 0 190 0 190 -190 0 -190 0 0 -190z"/>
<path d="M5610 6395 l0 -195 190 0 190 0 0 195 0 195 -190 0 -190 0 0 -195z"/>
<path d="M6410 6400 l0 -190 195 0 195 0 0 -1210 0 -1210 -195 0 -195 0 0
-190 0 -190 198 -2 c121 -2 44 -5 -203 -8 l-400 -5 0 -195 0 -195 2198 -3
2197 -2 0 200 0 200 -199 0 -199 0 -3 933 c-2 512 -2 1145 0 1405 l3 472 194
0 194 0 0 190 0 190 -1990 0 -1990 0 0 -190z m1190 -1200 l0 -1010 -195 0
-195 0 0 -190 0 -190 195 0 c123 0 195 -4 195 -10 0 -6 -72 -10 -195 -10
l-195 0 0 -190 0 -190 193 -3 192 -2 -197 -3 -198 -2 0 1405 0 1405 200 0 200
0 0 -1010z m2001 538 c2 -260 2 -893 0 -1405 l-3 -933 -797 2 -796 3 793 2
792 3 0 190 0 190 -795 0 c-523 0 -795 3 -795 10 0 7 272 10 795 10 l795 0 0
190 0 190 -795 0 -795 0 0 1010 0 1010 799 0 799 0 3 -472z"/>
<path d="M5610 6000 l0 -190 190 0 190 0 0 190 0 190 -190 0 -190 0 0 -190z"/>
<path d="M11210 5800 l0 -390 195 0 195 0 0 390 0 390 -195 0 -195 0 0 -390z"/>
<path d="M0 5200 l0 -190 195 0 195 0 0 190 0 190 -195 0 -195 0 0 -190z"/>
<path d="M400 4000 l0 -1000 203 -3 c111 -1 21 -3 -200 -5 l-403 -2 0 -188 0
-189 608 -6 c334 -4 961 -7 1395 -7 l787 0 0 195 0 195 -800 0 -800 0 0 600 0
600 -195 0 -195 0 0 405 0 405 -200 0 -200 0 0 -1000z"/>
<path d="M10608 4993 l-198 -3 0 -390 0 -390 195 0 c123 0 195 -4 195 -10 0
-6 -72 -10 -195 -10 l-195 0 0 -600 0 -600 -800 0 -800 0 0 -195 0 -195 788 0
c433 0 1060 3 1395 7 l607 6 0 189 0 188 -402 2 c-222 2 -312 4 -200 5 l202 3
0 1000 0 1000 -197 -2 c-109 -2 -287 -4 -395 -5z"/>
<path d="M5210 4200 l0 -790 190 0 190 0 0 790 0 790 -190 0 -190 0 0 -790z"/>
<path d="M6010 4200 l0 -790 190 0 190 0 0 790 0 790 -190 0 -190 0 0 -790z"/>
<path d="M1610 4000 l0 -190 190 0 190 0 0 190 0 190 -190 0 -190 0 0 -190z"/>
<path d="M6410 4000 l0 -190 190 0 190 0 0 190 0 190 -190 0 -190 0 0 -190z"/>
<path d="M10010 4000 l0 -190 190 0 190 0 0 190 0 190 -190 0 -190 0 0 -190z"/>
<path d="M10010 3600 l0 -190 190 0 190 0 0 190 0 190 -190 0 -190 0 0 -190z"/>
<path d="M4820 3600 l0 -180 180 0 180 0 0 180 0 180 -180 0 -180 0 0 -180z"/>
<path d="M1210 3200 l0 -189 190 -3 190 -3 0 193 0 192 -190 0 -190 0 0 -190z"/>
<path d="M11210 3200 l0 -190 195 0 195 0 0 190 0 190 -195 0 -195 0 0 -190z"/>
<path d="M3233 2593 l-423 -3 0 -195 0 -195 990 0 990 0 0 195 0 195 -277 0
c-153 0 -408 2 -568 3 -159 2 -480 2 -712 0z"/>
<path d="M7188 2593 l-378 -3 0 -195 0 -195 990 0 990 0 0 195 0 195 -322 0
c-178 0 -453 2 -613 3 -159 2 -460 2 -667 0z"/>
<path d="M810 2395 l0 -195 990 0 990 0 0 195 0 195 -990 0 -990 0 0 -195z"/>
<path d="M4810 2395 l0 -195 190 0 190 0 0 195 0 195 -190 0 -190 0 0 -195z"/>
<path d="M6410 2395 l0 -195 190 0 190 0 0 195 0 195 -190 0 -190 0 0 -195z"/>
<path d="M8810 2395 l0 -195 990 0 990 0 0 195 0 195 -990 0 -990 0 0 -195z"/>
</g>
</svg>
