<?xml version="1.0" encoding="UTF-8"?><svg id="Calque_2" xmlns="http://www.w3.org/2000/svg" viewBox="0 0 290 180"><defs><style>.cls-1{fill:#06c;}.cls-2{fill:#333;}.cls-3{fill:#036;}.cls-4{fill:#6cf;}.cls-5{fill:#09f;}.cls-6{fill:#039;}</style></defs><g id="Calque_1-2"><g><rect class="cls-3" x="20" y="10" width="10" height="20"/><rect class="cls-4" x="20" y="30" width="10" height="10"/><rect class="cls-4" x="20" y="100" width="10" height="10"/><rect class="cls-4" x="110" y="30" width="10" height="10"/><rect class="cls-5" x="10" y="30" width="10" height="10"/><rect class="cls-5" y="40" width="10" height="10"/><rect class="cls-3" x="30" width="100" height="10"/><rect class="cls-3" x="160" width="100" height="10"/><rect class="cls-3" x="29.64" y="70" width="100" height="10"/><rect class="cls-3" x="160" y="70" width="100" height="10"/><rect x="40" y="150" width="100" height="10"/><rect x="150" y="150" width="110" height="10"/><rect x="30" y="10" width="10" height="60"/><rect x="50" y="10" width="10" height="60"/><rect x="100" y="10" width="10" height="60"/><rect x="170" y="10" width="10" height="60"/><rect x="190" y="10" width="10" height="60"/><rect x="240" y="10" width="10" height="60"/><rect class="cls-1" x="40" y="50" width="10" height="10"/><rect class="cls-1" x="40" y="10" width="10" height="10"/><rect class="cls-5" x="40" y="20" width="10" height="30"/><rect class="cls-1" x="20" y="40" width="10" height="20"/><rect class="cls-3" x="20" y="80" width="10" height="20"/><rect class="cls-1" x="20" y="110" width="10" height="20"/><rect class="cls-1" x="110" y="10" width="10" height="20"/><rect class="cls-1" x="110" y="40" width="10" height="20"/><rect x="10" y="40" width="10" height="50"/><rect x="10" y="110" width="10" height="50"/><rect class="cls-1" y="120" width="10" height="40"/><rect class="cls-6" x="20" y="130" width="10" height="40"/><rect class="cls-1" y="50" width="10" height="40"/><rect class="cls-5" x="10" y="100" width="10" height="10"/><rect class="cls-5" y="110" width="10" height="10"/><rect class="cls-2" y="100" width="10" height="10"/><rect class="cls-3" x="30" y="150" width="10" height="10"/><rect class="cls-6" x="20" y="60" width="10" height="10"/><rect x="20" y="70" width="10" height="10"/><rect class="cls-6" x="40" y="60" width="10" height="10"/><rect class="cls-6" x="110" y="60" width="10" height="10"/><rect class="cls-6" x="60" y="60" width="40" height="10"/><rect class="cls-6" x="200" y="60" width="40" height="10"/><rect class="cls-6" y="160" width="70" height="10"/><rect class="cls-1" x="60" y="40" width="40" height="20"/><rect class="cls-1" x="60" y="10" width="40" height="20"/><rect class="cls-4" x="60" y="30" width="40" height="10"/><rect class="cls-4" x="110" y="100" width="10" height="10"/><rect class="cls-3" x="40" y="140" width="89.64" height="10"/><rect x="30" y="80" width="10" height="70"/><rect x="50" y="80" width="10" height="70"/><rect x="100" y="80" width="10" height="70"/><rect x="170" y="80" width="10" height="70"/><rect x="190" y="80" width="10" height="70"/><rect x="240" y="80" width="10" height="70"/><rect x="270" y="110" width="10" height="50"/><rect x="270" y="40" width="10" height="50"/><rect class="cls-1" x="40" y="120" width="10" height="10"/><rect class="cls-1" x="40" y="80" width="10" height="10"/><rect class="cls-5" x="40" y="90" width="10" height="30"/><rect class="cls-1" x="110" y="80" width="10" height="20"/><rect class="cls-1" x="110" y="110" width="10" height="20"/><rect class="cls-6" x="40" y="130" width="10" height="10"/><rect class="cls-6" x="110" y="130" width="10" height="10"/><rect class="cls-6" x="60" y="130" width="40" height="10"/><rect class="cls-3" x="200" y="140" width="40" height="10"/><rect class="cls-6" x="200" y="130" width="40" height="10"/><rect class="cls-1" x="60" y="110" width="40" height="20"/><rect class="cls-1" x="60" y="80" width="40" height="20"/><rect class="cls-4" x="60" y="100" width="40" height="10"/><rect class="cls-1" x="200" y="40" width="40" height="20"/><rect class="cls-1" x="200" y="10" width="40" height="20"/><rect class="cls-4" x="200" y="30" width="40" height="10"/><rect class="cls-1" x="200" y="110" width="40" height="20"/><rect class="cls-1" x="200" y="80" width="40" height="20"/><rect class="cls-4" x="200" y="100" width="40" height="10"/><rect class="cls-3" x="120" y="10" width="10" height="140"/><rect class="cls-6" x="5" y="85" width="10" height="20" transform="translate(105 85) rotate(90)"/><rect class="cls-3" x="20" y="170" width="50" height="10"/><rect class="cls-1" x="70" y="160" width="40" height="10"/><rect class="cls-6" x="70" y="170" width="50" height="10"/><rect class="cls-3" x="91.07" y="170" width="10" height="10"/><rect class="cls-2" x="120" y="140" width="10" height="10"/><rect class="cls-5" x="110" y="160" width="20" height="10"/><rect class="cls-3" x="120" y="170" width="10" height="10"/><rect class="cls-4" x="130" y="160" width="10" height="10"/><rect class="cls-6" x="130" y="110" width="10" height="40"/><rect class="cls-5" x="130" y="100" width="10" height="10"/><rect class="cls-6" x="130" y="90" width="10" height="10"/><rect x="130" y="80" width="10" height="10"/><rect class="cls-6" x="130" y="40" width="10" height="40"/><rect class="cls-6" x="150" y="110" width="10" height="40"/><rect class="cls-5" x="150" y="100" width="10" height="10"/><rect class="cls-6" x="150" y="90" width="10" height="10"/><rect x="150" y="80" width="10" height="10"/><rect class="cls-6" x="150" y="40" width="10" height="40"/><rect class="cls-5" x="130" y="30" width="10" height="10"/><rect class="cls-6" x="130" y="20" width="10" height="10"/><rect class="cls-5" x="140" y="20" width="10" height="10"/><rect class="cls-6" x="140" y="10" width="10" height="10"/><rect class="cls-5" x="150" y="30" width="10" height="10"/><rect class="cls-6" x="150" y="20" width="10" height="10"/><rect class="cls-5" x="140" y="150" width="10" height="10"/><rect class="cls-6" x="260" y="130" width="10" height="40" transform="translate(530 300) rotate(-180)"/><rect class="cls-6" x="220" y="160" width="70" height="10" transform="translate(510 330) rotate(-180)"/><rect class="cls-3" x="220" y="170" width="50" height="10" transform="translate(490 350) rotate(-180)"/><rect class="cls-1" x="180" y="160" width="40" height="10" transform="translate(400 330) rotate(-180)"/><rect class="cls-6" x="170" y="170" width="50" height="10" transform="translate(390 350) rotate(-180)"/><rect class="cls-3" x="188.93" y="170" width="10" height="10" transform="translate(387.87 350) rotate(-180)"/><rect class="cls-5" x="160" y="160" width="20" height="10" transform="translate(340 330) rotate(-180)"/><rect class="cls-3" x="160" y="170" width="10" height="10" transform="translate(330 350) rotate(-180)"/><rect class="cls-4" x="150" y="160" width="10" height="10" transform="translate(310 330) rotate(-180)"/><rect class="cls-4" x="140" y="140" width="10" height="10" transform="translate(290 290) rotate(-180)"/><rect class="cls-5" x="140" y="130" width="10" height="10"/><rect class="cls-4" x="140" y="100" width="10" height="30" transform="translate(290 230) rotate(-180)"/><rect class="cls-5" x="140" y="90" width="10" height="10"/><rect class="cls-3" x="140" y="80" width="10" height="10"/><rect class="cls-6" x="140" y="70" width="10" height="10"/><rect class="cls-5" x="140" y="60" width="10" height="10"/><rect class="cls-4" x="140" y="30" width="10" height="30" transform="translate(290 90) rotate(-180)"/><rect class="cls-1" x="160" y="10" width="10" height="20"/><rect class="cls-4" x="160" y="30" width="10" height="10"/><rect class="cls-1" x="160" y="40" width="10" height="20"/><rect class="cls-1" x="180" y="10" width="10" height="20"/><rect class="cls-4" x="180" y="30" width="10" height="10"/><rect class="cls-1" x="180" y="40" width="10" height="20"/><rect class="cls-1" x="160" y="80" width="10" height="20"/><rect class="cls-4" x="160" y="100" width="10" height="10"/><rect class="cls-1" x="160" y="110" width="10" height="20"/><rect class="cls-1" x="180" y="80" width="10" height="20"/><rect class="cls-4" x="180" y="100" width="10" height="10"/><rect class="cls-1" x="180" y="110" width="10" height="20"/><rect class="cls-3" x="260" y="110" width="10" height="20"/><rect class="cls-3" x="260" y="80" width="10" height="20"/><rect class="cls-3" x="260" y="40" width="10" height="30"/><rect class="cls-6" x="260" y="70" width="10" height="10"/><rect class="cls-3" x="160" y="140" width="10" height="10"/><rect class="cls-6" x="160" y="130" width="10" height="10"/><rect class="cls-3" x="180" y="140" width="10" height="10"/><rect class="cls-6" x="180" y="130" width="10" height="10"/><rect class="cls-5" x="180" y="20" width="10" height="10"/><rect class="cls-5" x="180" y="40" width="10" height="10"/><rect class="cls-6" x="180" y="60" width="10" height="10"/><rect class="cls-1" x="250" y="10" width="10" height="20"/><rect class="cls-4" x="250" y="30" width="10" height="10"/><rect class="cls-1" x="250" y="40" width="10" height="20"/><rect class="cls-1" x="250" y="80" width="10" height="20"/><rect class="cls-4" x="250" y="100" width="10" height="10"/><rect class="cls-1" x="250" y="110" width="10" height="20"/><rect class="cls-3" x="250" y="140" width="10" height="10"/><rect class="cls-6" x="250" y="60" width="10" height="10"/><rect class="cls-6" x="250" y="130" width="10" height="10"/><rect class="cls-5" x="265" y="95" width="10" height="20" transform="translate(375 -165) rotate(90)"/><rect class="cls-5" x="265" y="25" width="10" height="20" transform="translate(305 -235) rotate(90)"/><rect class="cls-6" x="160" y="60" width="10" height="10"/><rect class="cls-3" x="260" y="10" width="10" height="20"/><rect class="cls-5" x="280" y="40" width="10" height="10"/><rect class="cls-5" x="280" y="110" width="10" height="10"/><rect class="cls-6" x="270" y="90" width="10" height="10"/><rect class="cls-6" x="280" y="80" width="10" height="20"/><rect class="cls-6" x="280" y="150" width="10" height="10"/><rect class="cls-1" x="280" y="120" width="10" height="30"/><rect class="cls-1" x="280" y="50" width="10" height="30"/></g></g></svg>